<svg xmlns="http://www.w3.org/2000/svg" width="1200" height="700" viewBox="0 0 1200 700" font-family="'Helvetica Neue', Arial, sans-serif">
  <defs>
    <filter id="paper" x="0" y="0" width="100%" height="100%">
      <feTurbulence type="fractalNoise" baseFrequency="0.9" numOctaves="2" stitchTiles="stitch" result="n"/>
      <feColorMatrix in="n" type="matrix" values="0 0 0 0 0  0 0 0 0 0  0 0 0 0 0  0 0 0 0.035 0"/>
    </filter>
    <filter id="soft" x="-20%" y="-20%" width="140%" height="140%">
      <feDropShadow dx="0" dy="5" stdDeviation="9" flood-color="#b9a98c" flood-opacity="0.32"/>
    </filter>
  </defs>

  <rect width="1200" height="700" fill="#f4efe6"/>

  <text x="60" y="78" fill="#2c2a27" font-size="34" font-weight="800">Four Logos, One Face</text>
  <text x="60" y="112" fill="#7a736a" font-size="20">Different company, identical chat box — strip the logo and they are the same product.</text>

  <!-- ===== four identical windows; only the header brand differs ===== -->
  <!-- card geometry: w=250 h=326, y=176, x = 55,335,615,895 -->

  <!-- CARD 1: ChatGPT -->
  <g transform="translate(55,176)">
    <rect width="250" height="326" rx="16" fill="#fffdf9" stroke="#e6dfd2" stroke-width="1.5" filter="url(#soft)"/>
    <!-- OpenAI-style knot emblem (simplified) -->
    <g transform="translate(38,40)" stroke="#10a37f" stroke-width="4.5" fill="none" stroke-linecap="round" stroke-linejoin="round">
      <path d="M0,-13 C11,-13 18,-4 14,6 M14,6 C9,15 -2,16 -9,8 M-9,8 C-16,0 -13,-11 -3,-13 M-3,-13 C4,-14 12,-9 13,0"/>
      <circle cx="0" cy="-1" r="3.5" fill="#10a37f" stroke="none"/>
    </g>
    <text x="66" y="46" fill="#2c2a27" font-size="19" font-weight="700">ChatGPT</text>
    <line x1="24" y1="76" x2="150" y2="76" stroke="#ece7dd" stroke-width="9" stroke-linecap="round"/>
    <line x1="24" y1="102" x2="210" y2="102" stroke="#ece7dd" stroke-width="9" stroke-linecap="round"/>
    <line x1="24" y1="128" x2="120" y2="128" stroke="#ece7dd" stroke-width="9" stroke-linecap="round"/>
    <rect x="20" y="266" width="210" height="42" rx="21" fill="#f6ead6" stroke="#bd7a2c" stroke-width="2"/>
    <text x="38" y="292" fill="#b08a5a" font-size="14">Type a message…</text>
    <circle cx="209" cy="287" r="13" fill="#bd7a2c"/>
    <path d="M204 287 h9 M209 282 l5 5 l-5 5" stroke="#fff" stroke-width="2" fill="none" stroke-linecap="round" stroke-linejoin="round"/>
  </g>

  <!-- CARD 2: Gemini -->
  <g transform="translate(335,176)">
    <rect width="250" height="326" rx="16" fill="#fffdf9" stroke="#e6dfd2" stroke-width="1.5" filter="url(#soft)"/>
    <!-- Gemini four-point spark -->
    <g transform="translate(38,38)">
      <path d="M0,-15 C2.5,-6 6,-2.5 15,0 C6,2.5 2.5,6 0,15 C-2.5,6 -6,2.5 -15,0 C-6,-2.5 -2.5,-6 0,-15 Z" fill="#4285f4"/>
    </g>
    <text x="66" y="46" fill="#2c2a27" font-size="19" font-weight="700">Gemini</text>
    <line x1="24" y1="76" x2="150" y2="76" stroke="#ece7dd" stroke-width="9" stroke-linecap="round"/>
    <line x1="24" y1="102" x2="210" y2="102" stroke="#ece7dd" stroke-width="9" stroke-linecap="round"/>
    <line x1="24" y1="128" x2="120" y2="128" stroke="#ece7dd" stroke-width="9" stroke-linecap="round"/>
    <rect x="20" y="266" width="210" height="42" rx="21" fill="#f6ead6" stroke="#bd7a2c" stroke-width="2"/>
    <text x="38" y="292" fill="#b08a5a" font-size="14">Type a message…</text>
    <circle cx="209" cy="287" r="13" fill="#bd7a2c"/>
    <path d="M204 287 h9 M209 282 l5 5 l-5 5" stroke="#fff" stroke-width="2" fill="none" stroke-linecap="round" stroke-linejoin="round"/>
  </g>

  <!-- CARD 3: DeepSeek -->
  <g transform="translate(615,176)">
    <rect width="250" height="326" rx="16" fill="#fffdf9" stroke="#e6dfd2" stroke-width="1.5" filter="url(#soft)"/>
    <!-- DeepSeek whale (simplified) -->
    <g transform="translate(26,28)" fill="#4d6bfe">
      <path d="M2,14 C2,6 9,1 17,3 C21,1 24,2 26,4 C23,4 22,6 22,8 C26,9 28,12 28,16 C24,13 20,13 16,15 C10,18 3,17 2,14 Z"/>
      <circle cx="10" cy="10" r="1.6" fill="#fffdf9"/>
    </g>
    <text x="66" y="46" fill="#2c2a27" font-size="19" font-weight="700">DeepSeek</text>
    <line x1="24" y1="76" x2="150" y2="76" stroke="#ece7dd" stroke-width="9" stroke-linecap="round"/>
    <line x1="24" y1="102" x2="210" y2="102" stroke="#ece7dd" stroke-width="9" stroke-linecap="round"/>
    <line x1="24" y1="128" x2="120" y2="128" stroke="#ece7dd" stroke-width="9" stroke-linecap="round"/>
    <rect x="20" y="266" width="210" height="42" rx="21" fill="#f6ead6" stroke="#bd7a2c" stroke-width="2"/>
    <text x="38" y="292" fill="#b08a5a" font-size="14">Type a message…</text>
    <circle cx="209" cy="287" r="13" fill="#bd7a2c"/>
    <path d="M204 287 h9 M209 282 l5 5 l-5 5" stroke="#fff" stroke-width="2" fill="none" stroke-linecap="round" stroke-linejoin="round"/>
  </g>

  <!-- CARD 4: Claude -->
  <g transform="translate(895,176)">
    <rect width="250" height="326" rx="16" fill="#fffdf9" stroke="#e6dfd2" stroke-width="1.5" filter="url(#soft)"/>
    <!-- Claude / Anthropic burst -->
    <g transform="translate(38,38)" stroke="#cc785c" stroke-width="3.2" stroke-linecap="round">
      <line x1="0" y1="-15" x2="0" y2="-6"/>
      <line x1="10.6" y1="-10.6" x2="4.2" y2="-4.2"/>
      <line x1="15" y1="0" x2="6" y2="0"/>
      <line x1="10.6" y1="10.6" x2="4.2" y2="4.2"/>
      <line x1="0" y1="15" x2="0" y2="6"/>
      <line x1="-10.6" y1="10.6" x2="-4.2" y2="4.2"/>
      <line x1="-15" y1="0" x2="-6" y2="0"/>
      <line x1="-10.6" y1="-10.6" x2="-4.2" y2="-4.2"/>
    </g>
    <text x="66" y="46" fill="#2c2a27" font-size="19" font-weight="700">Claude</text>
    <line x1="24" y1="76" x2="150" y2="76" stroke="#ece7dd" stroke-width="9" stroke-linecap="round"/>
    <line x1="24" y1="102" x2="210" y2="102" stroke="#ece7dd" stroke-width="9" stroke-linecap="round"/>
    <line x1="24" y1="128" x2="120" y2="128" stroke="#ece7dd" stroke-width="9" stroke-linecap="round"/>
    <rect x="20" y="266" width="210" height="42" rx="21" fill="#f6ead6" stroke="#bd7a2c" stroke-width="2"/>
    <text x="38" y="292" fill="#b08a5a" font-size="14">Type a message…</text>
    <circle cx="209" cy="287" r="13" fill="#bd7a2c"/>
    <path d="M204 287 h9 M209 282 l5 5 l-5 5" stroke="#fff" stroke-width="2" fill="none" stroke-linecap="round" stroke-linejoin="round"/>
  </g>

  <!-- 'identical' bracket under the four input bars -->
  <path d="M75 540 L75 550 L1125 550 L1125 540" fill="none" stroke="#bd7a2c" stroke-width="2" opacity="0.55"/>
  <line x1="600" y1="550" x2="600" y2="562" stroke="#bd7a2c" stroke-width="2" opacity="0.55"/>
  <text x="600" y="586" fill="#a06a2a" font-size="17" font-weight="600" text-anchor="middle">one input field · one send button · one endless scroll — every time</text>

  <text x="600" y="640" fill="#8a837a" font-size="16" text-anchor="middle">Forty years of interface design, quietly collapsed into a single text box.</text>

  <rect width="1200" height="700" filter="url(#paper)"/>
</svg>
